<svg xmlns="http://www.w3.org/2000/svg" viewBox="0 0 1205.61 124.6"><title>Ricardo Sandez Logo</title><g id="Layer_2" data-name="Layer 2"><g id="Layer_1-2" data-name="Layer 1"><path d="M74.52,69.81l30.86,54H77L47.37,72.62H24.76v51.16H0V0H54Q97.29,0,97.29,35.65,97.29,62.47,74.52,69.81ZM24.76,49.51H59.41q14.94-.24,15.35-13.61-.41-12.22-15.1-12.71H24.76Z" fill="#999"/><path d="M118.83,13.16a12,12,0,0,1,8.91-3.34q5.94,0,9.24,3.34a11.34,11.34,0,0,1,3.3,8.3,11.19,11.19,0,0,1-3.3,8.25q-3.3,3.3-9.07,3.3t-9.08-3.3a11.19,11.19,0,0,1-3.3-8.25A11.34,11.34,0,0,1,118.83,13.16Zm20.63,110.62V41.18H116.35v82.6Z" fill="#999"/><path d="M167.76,113.46q-12.37-10.3-12.38-26.81V78.39q0-16.5,12.38-26.82a43.9,43.9,0,0,1,29-10.31q19.8,0,32.92,14l-16.5,12.38q-7.43-7.44-16.51-7.43-8.25,0-14.44,6.6A22.18,22.18,0,0,0,176,82.52a23,23,0,0,0,5.78,15.68,18.83,18.83,0,0,0,14.85,6.6q9.08,0,16.51-7.43l16.5,12.38q-13.2,14-33,14A43.73,43.73,0,0,1,167.76,113.46Z" fill="#999"/><path d="M247.72,51.16q15.69-9.9,36.31-9.9,14.87,0,23.52,8.25t8.66,24.76v49.51h-23.1v-6.6q-10.07,6.6-18.15,6.6-16.51,0-24.76-7T242,97.37a30.8,30.8,0,0,1,7.8-20.63q7.78-9.08,25.21-9.07,8,0,18.15,5V70.14q-.17-9.07-13.2-9.9-14.87,0-23.11,4.95ZM293.11,99V89.7q-3.3-6.36-15.68-6.36Q262.58,85,261.75,94.9q.83,9.81,15.68,10.64Q289.81,105.54,293.11,99Z" fill="#999"/><path d="M358.13,50.34a28.93,28.93,0,0,1,21.54-9.08,43,43,0,0,1,7.68.66L383.72,64.7q-4.05-3.63-11.56-3.88-8.42.57-14,12.21v50.75H335V43.65l23.1-2.47Z" fill="#999"/><path d="M480.84.08v123.7H457.73v-6.6q-9.24,6.6-18.15,6.6-19,0-30.12-12.38a41.8,41.8,0,0,1-11.14-28.88,41.8,41.8,0,0,1,11.14-28.88q11.15-12.37,30.12-12.38,12.38.83,18.15,6.68V0ZM457.73,90V76.58q-1.65-13.86-17.32-16.26Q420.6,61.9,418.13,80.87,419,104,440.41,104.8,456.09,102.33,457.73,90Z" fill="#999"/><path d="M508.4,112.52q-12-12.09-12-30t12-30q12-12,30-12t30,12q12,12.06,12,30t-12,30q-12.06,12-30,12T508.4,112.52Zm30-7.89q9.4,0,15.26-6.31a22.21,22.21,0,0,0,5.86-15.72,22.36,22.36,0,0,0-5.86-15.76q-5.85-6.35-15.35-6.35a19.73,19.73,0,0,0-15.18,6.35,22.36,22.36,0,0,0-5.86,15.76,22.21,22.21,0,0,0,5.86,15.72Q529,104.64,538.36,104.63Z" fill="#999"/><path d="M722.87,4.13A57.56,57.56,0,0,1,740.61,16.5L724.11,33q-8.25-9.9-23.11-9.9t-19,7q-4.12,7,0,12t19,7.43a61.43,61.43,0,0,1,28.47,10.32q12.79,8.65,12.79,27.64,0,14.85-13.65,25.58a50,50,0,0,1-31.81,10.73q-17.25,0-28.8-5a62.36,62.36,0,0,1-19.81-13.2l16.5-16.51q8.25,9.9,28.06,11.55,16.5,0,20.59-7a13.08,13.08,0,0,0,0-14q-4.08-7-20.59-8.66a66.57,66.57,0,0,1-27.23-9.08q-12.37-7.43-12.38-25.58,0-16.43,14.07-26.37T696.14,0Q713.38,0,722.87,4.13Z" fill="#999"/><path d="M764.05,51.16q15.68-9.9,36.31-9.9,14.85,0,23.52,8.25t8.66,24.76v49.51H809.43v-6.6q-10.06,6.6-18.15,6.6-16.5,0-24.76-7t-8.25-19.4a30.8,30.8,0,0,1,7.8-20.63q7.8-9.08,25.21-9.07,8,0,18.15,5V70.14q-.16-9.07-13.2-9.9-14.85,0-23.1,4.95ZM809.43,99V89.7q-3.3-6.36-15.67-6.36Q778.9,85,778.08,94.9q.82,9.81,15.68,10.64Q806.14,105.54,809.43,99Z" fill="#999"/><path d="M876.27,71.3v52.48h-23.1V43.65l23.1-2.47v7.51a28.8,28.8,0,0,1,19.81-7.43q15.67,0,23.93,9.49a32.36,32.36,0,0,1,8.25,21.87v51.16h-23.1V78.39q0-8.25-4.13-12.79t-12.46-4.78Q881.39,61.32,876.27,71.3Z" fill="#999"/><path d="M1026,.08v123.7h-23.11v-6.6q-9.24,6.6-18.15,6.6-19,0-30.12-12.38a41.8,41.8,0,0,1-11.14-28.88,41.8,41.8,0,0,1,11.14-28.88q11.13-12.37,30.12-12.38,12.38.83,18.15,6.68V0ZM1002.86,90V76.58q-1.65-13.86-17.33-16.26-19.8,1.57-22.28,20.55.82,23.1,22.28,23.93Q1001.21,102.33,1002.86,90Z" fill="#999"/><path d="M1041.89,82.52q0-18.15,11.55-29.71t29.71-11.55q18.15,0,28.88,11.55t10.73,29.71v8.25h-56.94a14.59,14.59,0,0,0,5.78,10.32,18.75,18.75,0,0,0,11.55,3.71,34.2,34.2,0,0,0,20.63-6.6l13.2,13.2q-9.07,12.38-33.83,12.38-18.15,0-29.71-11.55T1041.89,82.52ZM1094.7,64a19.83,19.83,0,0,0-23.1,0,12.18,12.18,0,0,0-4.95,10.32h33A12.17,12.17,0,0,0,1094.7,64Z" fill="#999"/><path d="M1205.61,123.78h-65.93v-5.53L1174,60.9h-34.32V41.42h65.93v6L1171.2,104.3h34.41Z" fill="#999"/></g></g></svg>