<?xml version="1.0" encoding="iso-8859-1"?>
<!-- Generator: Adobe Illustrator 19.0.0, SVG Export Plug-In . SVG Version: 6.00 Build 0)  -->
<svg version="1.1" id="Capa_1" xmlns="http://www.w3.org/2000/svg" xmlns:xlink="http://www.w3.org/1999/xlink" x="0px" y="0px"
	 viewBox="0 0 512 512" style="enable-background:new 0 0 512 512;" xml:space="preserve">
<path style="fill:#EAE8E8;" d="M512,339.911c0,6.828-5.535,12.363-12.363,12.363H12.363C5.536,352.274,0,346.739,0,339.911V172.089
	c0-6.827,5.536-12.363,12.363-12.363h487.274c6.828,0,12.363,5.536,12.363,12.363V339.911z"/>
<g>
	<path style="fill:#585A60;" d="M472.32,220.54h-32.189c-1.423,0-2.576,1.153-2.576,2.576v4.064c0,1.423,1.153,2.576,2.576,2.576
		h0.876c3.817,0,3.817,0.938,3.817,1.499c0,0.74-0.544,1.592-1.144,2.408c-15.134,16.175-14.632,16.099-16.36,16.099
		c-1.799,0-1.486-0.15-15.456-15.39c-0.64-0.798-1.64-1.665-1.64-2.688c0-1.951,3.736-1.928,5.673-1.928
		c1.423,0,2.576-1.153,2.576-2.576v-4.064c0-1.423-1.153-2.576-2.576-2.576h-42.149c-1.423,0-2.576,1.153-2.576,2.576v4.085
		c0,1.404,1.124,2.548,2.527,2.575c9.154,0.173,8.943,1.454,12.872,6.03l25.426,28.129v14.252c0,3.684-1.794,4.927-7.109,4.927
		h-5.596c-1.423,0-2.576,1.153-2.576,2.576v3.745c0,1.423,1.153,2.576,2.576,2.576h47.148c1.423,0,2.576-1.153,2.576-2.576v-3.745
		c0-1.423-1.153-2.576-2.576-2.576c-8.331,0-12.706,0.658-12.706-4.927v-14.252l21.564-23.287c0.045-0.048,0.087-0.099,0.128-0.15
		c8.979-11.327,9.033-10.743,16.894-10.743c1.423,0,2.576-1.153,2.576-2.576v-4.064C474.896,221.693,473.743,220.54,472.32,220.54z"
		/>
	<path style="fill:#585A60;" d="M57.087,237.037c0-10.399,34.425-14.33,49.339-0.623c2.604,2.393,5.363,4.188,6.64,8.068
		c0.742,2.254,2.713,1.77,8.407,1.77c1.423,0,2.576-1.153,2.576-2.576V223.11c0-1.423-1.153-2.576-2.576-2.576h-6.411
		c-1.282,0-2.369,0.943-2.55,2.213c-0.488,3.434-2.082,3.329-4.601,1.892c-21.431-12.065-70.805-7.766-70.805,17.541
		c0,14.908,15.136,18.445,30.609,20.786c31.219,5.106,39.99,5.491,39.99,12.109c0,12.896-39.983,11.527-51.251,1.168
		c-2.76-2.502-5.615-3.794-7.893-9.231c-0.853-2.034-2.51-1.58-8.606-1.58c-1.423,0-2.576,1.153-2.576,2.576v21.424
		c0,1.423,1.153,2.576,2.576,2.576h6.956c1.2,0,2.242-0.829,2.51-2c0.889-3.871,2.419-4.056,4.014-3.138
		c21.792,11.563,74.814,11.926,74.814-16.828C128.248,240.173,57.087,252.826,57.087,237.037z"/>
	<path style="fill:#585A60;" d="M360.535,221.08h-36.52c-1.423,0-2.576,1.153-2.576,2.576v3.742c0,1.423,1.153,2.576,2.576,2.576
		c6.804,0,11.499-0.478,11.499,5.015l-0.225,28.599c-48.152-45.13-44.917-42.508-46.372-42.508h-33.823
		c-1.423,0-2.576,1.153-2.576,2.576v3.742c0,1.423,1.153,2.576,2.576,2.576c7.298,0,12.119-0.573,12.119,5.036v43.716
		c0,5.659-5.187,5.036-12.119,5.036c-1.423,0-2.576,1.153-2.576,2.576v3.638c0,1.423,1.153,2.576,2.576,2.576h38.121
		c1.423,0,2.576-1.153,2.576-2.576v-3.638c0-1.423-1.153-2.576-2.576-2.576c-7.114,0-12.196,0.599-12.196-5.036v-36.321
		l52.082,49.322c1.03,0.976,0.909,0.699,14.451,0.804c0.726,0.001,1.347-0.264,1.834-0.747c1.088-1.079,0.762,2.384,0.762-56.773
		c0-8.909,12.964-1.832,12.964-7.611v-3.742C363.11,222.233,361.957,221.08,360.535,221.08z"/>
	<path style="fill:#585A60;" d="M195.704,217.744c-33.309,0-54.001,14.658-54.001,38.254c0,23.265,20.303,37.718,52.987,37.718
		c34.685,0,54.578-14.177,54.578-38.896C249.268,232.644,227.742,217.744,195.704,217.744z M224.508,256.214
		c0,18.173-10.497,28.181-29.558,28.181c-18.4,0-28.952-10.546-28.952-28.933c0-18.114,10.885-28.503,29.865-28.503
		C214.067,226.959,224.508,237.622,224.508,256.214z"/>
</g>
<path style="fill:#D3D1D1;" d="M21.626,339.911V172.089c0-6.827,5.536-12.363,12.363-12.363H12.363
	C5.536,159.726,0,165.262,0,172.089V339.91c0,6.828,5.536,12.363,12.363,12.363h21.626
	C27.161,352.274,21.626,346.739,21.626,339.911z"/>
<g>
</g>
<g>
</g>
<g>
</g>
<g>
</g>
<g>
</g>
<g>
</g>
<g>
</g>
<g>
</g>
<g>
</g>
<g>
</g>
<g>
</g>
<g>
</g>
<g>
</g>
<g>
</g>
<g>
</g>
</svg>
